<?xml version="1.0" encoding="UTF-8" standalone="no"?><!DOCTYPE svg PUBLIC "-//W3C//DTD SVG 1.1//EN" "http://www.w3.org/Graphics/SVG/1.1/DTD/svg11.dtd"><svg width="100%" height="100%" viewBox="0 0 930 204" version="1.1" xmlns="http://www.w3.org/2000/svg" xmlns:xlink="http://www.w3.org/1999/xlink" xml:space="preserve" xmlns:serif="http://www.serif.com/" style="fill-rule:evenodd;clip-rule:evenodd;stroke-linejoin:round;stroke-miterlimit:2;"><g><path d="M201.813,1.438l-0,14.562c-0,0.793 -0.645,1.438 -1.438,1.438l-198.812,-0c-0.794,-0 -1.438,-0.645 -1.438,-1.438l-0,-14.562c-0,-0.794 0.644,-1.438 1.438,-1.438l198.812,0c0.793,0 1.438,0.644 1.438,1.438Z" style="fill:#002a61;"/><path d="M201.844,34.469l-0,12.437c-0,0.845 -0.686,1.531 -1.532,1.531l-198.687,0c-0.845,0 -1.531,-0.686 -1.531,-1.531l-0,-12.437c-0,-0.845 0.686,-1.532 1.531,-1.532l198.687,0.001c0.846,-0 1.532,0.686 1.532,1.531Z" style="fill:#002a61;"/><path d="M292.688,116.813l-0,39.75c-0,0.406 -0.219,0.625 -0.625,0.625l-22.407,-0c-0.437,-0 -0.656,-0.219 -0.656,-0.657l0,-105.656c0,-1.187 0.594,-1.812 1.781,-1.844c12.469,-0.343 28.938,-0.437 49.344,-0.312c11.469,0.094 19.406,1.406 23.813,3.969c19.687,11.468 20.687,40.812 -0,52c-0.938,0.531 -0.969,1.062 -0.063,1.656c8.094,5.25 12.406,11.5 12.875,18.75c1.031,15.5 2.5,25.812 4.344,30.937c0.281,0.782 -0,1.157 -0.813,1.157l-21.781,-0c-0.781,-0 -1.438,-0.594 -1.531,-1.375c-1.938,-16.188 -3.063,-25.313 -3.344,-27.407c-1.188,-8.718 -6.281,-13.062 -15.25,-13.25c-9.469,-0.218 -17.469,-0.25 -24.031,-0.062c-1.094,0.031 -1.656,0.594 -1.656,1.719Zm-0.063,-48.157l0.063,27.688c-0,0.812 0.656,1.469 1.468,1.469l26.438,-0.032c8.031,-0.031 14.531,-6.218 14.5,-13.812l-0,-3.063c-0.031,-7.625 -6.531,-13.781 -14.563,-13.75l-26.437,0.032c-0.813,-0 -1.469,0.656 -1.469,1.468Z" style="fill:#002a61;fill-rule:nonzero;"/><path d="M757.156,48.75c12.906,0.031 27.156,0 42.813,-0.031c0.812,-0 1.5,0.687 1.5,1.5l-0,17.187c-0,0.75 -0.594,1.344 -1.344,1.344l-29.844,0c-0.656,0 -1.187,0.531 -1.187,1.188l-0,86.093c-0,0.625 -0.313,0.938 -0.938,0.969c-3.531,0.125 -7.187,0.188 -11,0.188c-3.812,-0 -7.468,-0.063 -11,-0.188c-0.625,-0.031 -0.937,-0.344 -0.937,-0.969l-0.031,-86.094c-0,-0.656 -0.532,-1.187 -1.188,-1.187l-29.844,0c-0.718,0 -1.343,-0.594 -1.343,-1.344l-0,-17.187c-0,-0.813 0.687,-1.5 1.5,-1.5c15.656,0.062 29.937,0.062 42.843,0.031Z" style="fill:#002a61;fill-rule:nonzero;"/><path d="M58.375,64.25l-12.688,14.469c-0.468,0.531 -0.968,0.812 -1.468,0.812l-42.438,0c-0.937,0 -1.687,-0.781 -1.687,-1.718l-0,-12.375c-0,-0.875 0.687,-1.563 1.562,-1.563l56.563,0c0.187,0 0.281,0.219 0.156,0.375Z" style="fill:#002a61;fill-rule:nonzero;"/><path d="M143.688,64.344c-0.126,-0.157 -0.032,-0.375 0.156,-0.375l56.437,-0.125c0.875,-0 1.563,0.718 1.563,1.562l0.031,12.344c-0,0.969 -0.75,1.719 -1.688,1.719l-42.343,0.094c-0.5,-0 -1,-0.282 -1.469,-0.813l-12.688,-14.406Z" style="fill:#002a61;fill-rule:nonzero;"/><path d="M454.015,122.609c-0.078,20.203 -16.484,36.516 -36.69,36.434l-7.125,-0.025c-20.2,-0.081 -36.512,-16.487 -36.434,-36.689l0.031,-9.063c0.078,-20.204 16.484,-36.516 36.69,-36.434l7.125,0.025c20.201,0.08 36.513,16.487 36.435,36.689l-0.032,9.063Zm-40.167,20.922c10.746,0.031 19.496,-11.406 19.558,-25.557c0.063,-14.162 -8.625,-25.662 -19.379,-25.693c-10.746,-0.031 -19.496,11.406 -19.558,25.557c-0.063,14.162 8.625,25.662 19.379,25.693Z" style="fill:#002a61;fill-rule:nonzero;"/><path d="M488.781,85.438c-0.343,3.843 0.656,4.218 3,1.156c10.781,-14.282 33.5,-13.407 43.438,1.062c0.625,0.906 1.406,1.063 2.312,0.406c0.625,-0.437 1.531,-1.375 2.688,-2.843c7.5,-9.532 22.312,-10.563 32.687,-6.594c10.219,3.937 15.344,12 15.438,24.156c0.093,13.219 0.156,30.875 0.125,52.906c-0,1.032 -0.5,1.532 -1.532,1.532l-18.812,-0c-0.719,-0 -1.313,-0.594 -1.313,-1.313l-0.25,-50.031c-0.031,-8.313 -4.406,-12.313 -13.125,-12.031c-0.062,-0 -0.25,-0 -0.531,0.031c-8.719,0.656 -13.125,5.25 -13.219,13.781l-0.468,47.844c-0,1.156 -0.563,1.719 -1.719,1.719l-18.031,-0c-0.875,-0 -1.563,-0.688 -1.563,-1.563l-0.219,-49.344c-0.031,-8.875 -4.375,-12.968 -13,-12.25c-0.562,0.032 -0.875,0.063 -0.906,0.063c-8.719,1.187 -13.125,6.187 -13.156,14.969l-0.281,46.843c-0,0.844 -0.438,1.282 -1.281,1.282l-18.625,-0c-0.969,-0 -1.469,-0.5 -1.469,-1.469l-0,-75c-0,-1.469 0.719,-2.188 2.187,-2.188l16.5,0c1.438,0 2.438,1.407 2,2.782c-0.469,1.468 -0.781,2.843 -0.875,4.093Z" style="fill:#002a61;fill-rule:nonzero;"/><path d="M655.531,151.813c0,-0.844 -0.937,-1.344 -1.625,-0.844c-10.031,7.343 -20.719,9.968 -32.062,7.812c-13.75,-2.594 -22.25,-13.312 -19.625,-27.25c3.75,-20.062 25.218,-19.344 44.312,-22.25c4.969,-0.75 9.219,-5.719 7.313,-11.094c-1.657,-4.718 -5.75,-7.125 -12.282,-7.218c-9,-0.157 -14.156,3.281 -15.468,10.312c-0.188,1.031 -0.813,1.531 -1.844,1.531l-18.719,0c-0.843,0 -1.468,-0.75 -1.312,-1.562c4.875,-25.875 34.594,-28.156 55.125,-22.438c13.344,3.719 16.406,11.688 16.281,25.25c-0.187,19.094 -0.156,33.344 0.063,42.75c0.062,3.313 1.75,6.032 2.093,8.969c0.094,0.969 -0.312,1.438 -1.281,1.438l-18.594,-0c-1.593,-0 -2.375,-0.782 -2.375,-2.375l0,-3.032Zm-3.156,-32.062c-7.437,2.844 -16,3.031 -20.906,4.781c-10.438,3.75 -11.75,17.313 0.469,19.813c8.75,1.781 15.531,-0.719 20.312,-7.563c1.156,-1.625 1.844,-6.844 2.094,-15.625c0.031,-1.469 -0.625,-1.937 -1.969,-1.406Z" style="fill:#002a61;fill-rule:nonzero;"/><path d="M817.406,89.344c-0.469,3.531 0.281,3.812 2.219,0.843c6.031,-9.218 14.75,-13.812 26.156,-13.812c1.531,-0 2.313,0.75 2.313,2.25l-0,16.969c-0,1.25 -0.625,1.781 -1.844,1.625c-17.469,-2.469 -26.5,5.343 -27.094,23.5c-0.281,9.468 -0.281,21.062 0,34.75c0.032,1.156 -0.562,1.75 -1.718,1.75l-18.125,-0c-0.969,-0 -1.782,-0.813 -1.782,-1.782l0,-74.625c0,-1.531 0.75,-2.281 2.25,-2.281l16.782,0c1.187,0 2.093,1.063 1.937,2.25l-1.094,8.563Z" style="fill:#002a61;fill-rule:nonzero;"/><path d="M871.438,124.844c0.75,7.343 3.031,12.156 6.812,14.468c10.844,6.594 20.594,4.813 29.313,-5.343c0.718,-0.844 1.656,-1.25 2.781,-1.25l14.781,-0c1.344,-0 1.75,0.593 1.219,1.812c-6.844,16.25 -18.219,24.5 -34.094,24.781c-18.594,0.313 -31.312,-6.781 -38.094,-21.281c-11.5,-24.594 -0.437,-54.781 27.813,-60.781c29.25,-6.219 46.25,18.469 47.687,43.625c0.063,1.25 -0.937,2.281 -2.187,2.281l-54.5,0c-1.125,0 -1.625,0.563 -1.531,1.688Zm0.562,-15.375l33.75,0.062c0.219,0 0.438,-0.187 0.438,-0.437l-0,-0.25c-0,-8.782 -7.563,-15.875 -16.907,-15.907l-0.812,0c-9.313,-0.031 -16.906,7.063 -16.906,15.844l-0,0.25c-0,0.25 0.187,0.438 0.437,0.438Z" style="fill:#002a61;fill-rule:nonzero;"/><path d="M0.125,109.656l0,-13.5c0,-0.562 0.469,-1.031 1.031,-1.031l36.313,0c0.625,0 1.125,0.594 1,1.219l-2.407,13.5c-0.093,0.5 -0.531,0.844 -1.031,0.844l-33.875,-0c-0.562,-0 -1.031,-0.469 -1.031,-1.032Z" style="fill:#002a61;fill-rule:nonzero;"/><path d="M201.906,96.094l0,13.625c0,0.531 -0.437,0.968 -0.969,0.968l-33.937,0c-0.469,0 -0.875,-0.343 -0.969,-0.781l-2.437,-13.625c-0.125,-0.625 0.344,-1.156 0.937,-1.156l36.406,0c0.532,0 0.969,0.438 0.969,0.969Z" style="fill:#002a61;fill-rule:nonzero;"/><path d="M53.625,202.375l46.406,-97.5c0.406,-0.812 1.531,-0.812 1.938,0l46.406,97.5c0.344,0.719 -0.188,1.531 -0.969,1.531l-92.812,0c-0.782,0 -1.313,-0.812 -0.969,-1.531Z" style="fill:#002a61;fill-rule:nonzero;"/><path d="M36.375,127.594l0,12.687c0,0.742 -0.602,1.344 -1.344,1.344l-33.625,0c-0.741,0 -1.343,-0.602 -1.343,-1.344l-0,-12.687c-0,-0.742 0.602,-1.344 1.343,-1.344l33.625,-0c0.742,-0 1.344,0.602 1.344,1.344Z" style="fill:#002a61;"/><path d="M201.938,127.5l-0.001,12.875c0,0.707 -0.574,1.281 -1.281,1.281l-33.562,0c-0.707,0 -1.281,-0.574 -1.281,-1.281l-0,-12.875c-0,-0.707 0.574,-1.281 1.281,-1.281l33.562,-0c0.707,-0 1.281,0.574 1.281,1.281Z" style="fill:#002a61;"/><path d="M36.406,158.719l0,12.75c0,0.759 -0.616,1.375 -1.375,1.375l-33.625,-0c-0.759,-0 -1.375,-0.616 -1.375,-1.375l0,-12.75c0,-0.759 0.616,-1.375 1.375,-1.375l33.625,-0c0.759,-0 1.375,0.616 1.375,1.375Z" style="fill:#002a61;"/><path d="M201.938,158.562l-0.001,13.063c0,0.673 -0.546,1.219 -1.218,1.219l-33.688,-0c-0.672,-0 -1.219,-0.546 -1.219,-1.219l0,-13.063c0,-0.672 0.547,-1.218 1.219,-1.218l33.688,-0c0.672,-0 1.219,0.546 1.219,1.218Z" style="fill:#002a61;"/><path d="M36.438,189.719l-0.001,12.812c0,0.725 -0.588,1.313 -1.312,1.313l-33.813,-0c-0.724,-0 -1.312,-0.588 -1.312,-1.313l-0,-12.812c-0,-0.725 0.588,-1.313 1.312,-1.313l33.813,0c0.724,0 1.312,0.588 1.312,1.313Z" style="fill:#002a61;"/><path d="M202,189.719l0,12.812c0,0.725 -0.588,1.313 -1.312,1.313l-33.626,-0c-0.724,-0 -1.312,-0.588 -1.312,-1.313l0,-12.812c0,-0.725 0.588,-1.313 1.312,-1.313l33.626,0c0.724,0 1.312,0.588 1.312,1.313Z" style="fill:#002a61;"/></g></svg>